<svg xmlns="http://www.w3.org/2000/svg" xmlns:xlink="http://www.w3.org/1999/xlink" xmlns:lucid="lucid" width="1562" height="622"><g transform="translate(-1339 -399)" lucid:page-tab-id="0_0"><path d="M1000 0h2000v1500H1000z" fill="#fff"/><path d="M1340 406a6 6 0 0 1 6-6h1548a6 6 0 0 1 6 6v608a6 6 0 0 1-6 6H1346a6 6 0 0 1-6-6z" stroke="#000" stroke-width="2" fill="#fff"/><path d="M1420 716a6 6 0 0 1 6-6h183.67a6 6 0 0 1 6 6v88a6 6 0 0 1-6 6H1426a6 6 0 0 1-6-6z" stroke="#000" stroke-width="2" fill="#fff"/><use xlink:href="#a" transform="matrix(1,0,0,1,1425,715) translate(14.717664930555571 52.46527777777778)"/><use xlink:href="#b" transform="matrix(1,0,0,1,1425,715) translate(82.56705729166667 52.46527777777778)"/><path d="M1920 716a6 6 0 0 1 6-6h183.67a6 6 0 0 1 6 6v88a6 6 0 0 1-6 6H1926a6 6 0 0 1-6-6z" stroke="#000" stroke-width="2" fill="#fff"/><use xlink:href="#c" transform="matrix(1,0,0,1,1925,715) translate(7.832899305555557 52.46527777777778)"/><use xlink:href="#d" transform="matrix(1,0,0,1,1925,715) translate(133.26692708333331 52.46527777777778)"/><path d="M2200 546a6 6 0 0 1 6-6h148a6 6 0 0 1 6 6v108a6 6 0 0 1-6 6h-148a6 6 0 0 1-6-6z" stroke="#000" stroke-width="2" fill="#fff"/><use xlink:href="#e" transform="matrix(1,0,0,1,2212,552) translate(7.930555555555557 24.52777777777778)"/><use xlink:href="#f" transform="matrix(1,0,0,1,2212,552) translate(98.80512152777777 24.52777777777778)"/><use xlink:href="#g" transform="matrix(1,0,0,1,2212,552) translate(10.909071180555557 56.79340277777778)"/><use xlink:href="#h" transform="matrix(1,0,0,1,2212,552) translate(13.1171875 89.05902777777777)"/><use xlink:href="#i" transform="matrix(1,0,0,1,2212,552) translate(73.11067708333333 89.05902777777777)"/><use xlink:href="#j" transform="matrix(1,0,0,1,2212,552) translate(113.84418402777777 89.05902777777777)"/><path d="M2200 706a6 6 0 0 1 6-6h148a6 6 0 0 1 6 6v108a6 6 0 0 1-6 6h-148a6 6 0 0 1-6-6z" stroke="#000" stroke-width="2" fill="#fff"/><use xlink:href="#e" transform="matrix(1,0,0,1,2212,712) translate(7.930555555555557 24.52777777777778)"/><use xlink:href="#f" transform="matrix(1,0,0,1,2212,712) translate(98.80512152777777 24.52777777777778)"/><use xlink:href="#g" transform="matrix(1,0,0,1,2212,712) translate(10.909071180555557 56.79340277777778)"/><use xlink:href="#h" transform="matrix(1,0,0,1,2212,712) translate(10.860243055555557 89.05902777777777)"/><use xlink:href="#i" transform="matrix(1,0,0,1,2212,712) translate(70.85373263888889 89.05902777777777)"/><use xlink:href="#k" transform="matrix(1,0,0,1,2212,712) translate(111.58723958333333 89.05902777777777)"/><path d="M2200 866a6 6 0 0 1 6-6h148a6 6 0 0 1 6 6v108a6 6 0 0 1-6 6h-148a6 6 0 0 1-6-6z" stroke="#000" stroke-width="2" fill="#fff"/><use xlink:href="#e" transform="matrix(1,0,0,1,2212,872) translate(7.930555555555557 24.52777777777778)"/><use xlink:href="#f" transform="matrix(1,0,0,1,2212,872) translate(98.80512152777777 24.52777777777778)"/><use xlink:href="#g" transform="matrix(1,0,0,1,2212,872) translate(10.909071180555557 56.79340277777778)"/><use xlink:href="#h" transform="matrix(1,0,0,1,2212,872) translate(11.071831597222229 89.05902777777777)"/><use xlink:href="#i" transform="matrix(1,0,0,1,2212,872) translate(71.06532118055556 89.05902777777777)"/><use xlink:href="#l" transform="matrix(1,0,0,1,2212,872) translate(111.798828125 89.05902777777777)"/><path d="M2440 706a6 6 0 0 1 6-6h148a6 6 0 0 1 6 6v108a6 6 0 0 1-6 6h-148a6 6 0 0 1-6-6z" stroke="#000" stroke-width="2" fill="#fff"/><use xlink:href="#m" transform="matrix(1,0,0,1,2445,705) translate(11.338975694444436 31.84027777777778)"/><use xlink:href="#n" transform="matrix(1,0,0,1,2445,705) translate(34.43467881944444 64.10590277777777)"/><use xlink:href="#o" transform="matrix(1,0,0,1,2445,705) translate(29.779730902777786 96.37152777777777)"/><path d="M1680 716a6 6 0 0 1 6-6h163.67a6 6 0 0 1 6 6v88a6 6 0 0 1-6 6H1686a6 6 0 0 1-6-6z" stroke="#000" stroke-width="2" fill="#fff"/><use xlink:href="#p" transform="matrix(1,0,0,1,1685,715) translate(36.67296006944445 52.46527777777778)"/><path d="M2680 711a6 6 0 0 1 6-6h168a6 6 0 0 1 6 6v98a6 6 0 0 1-6 6h-168a6 6 0 0 1-6-6z" fill="none"/><use xlink:href="#q" transform="matrix(1,0,0,1,2680,705) translate(11.289062500000028 42.92643229166668)"/><use xlink:href="#r" transform="matrix(1,0,0,1,2680,705) translate(42.750651041666686 91.32486979166666)"/><path d="M1617.17 760h45.45" stroke="#3a414a" fill="none"/><path d="M1617.18 760.48h-.5v-.96h.5z" stroke="#3a414a" stroke-width=".05" fill="#3a414a"/><path d="M1677.38 760l-14.26 4.63v-9.26z" stroke="#3a414a" fill="#3a414a"/><path d="M1857.17 760h45.45" stroke="#3a414a" fill="none"/><path d="M1857.18 760.48h-.5v-.96h.5z" stroke="#3a414a" stroke-width=".05" fill="#3a414a"/><path d="M1917.38 760l-14.26 4.63v-9.26z" stroke="#3a414a" fill="#3a414a"/><path d="M2117.17 760h65.45" stroke="#3a414a" fill="none"/><path d="M2117.18 760.48h-.5v-.96h.5z" stroke="#3a414a" stroke-width=".05" fill="#3a414a"/><path d="M2197.38 760l-14.26 4.63v-9.26z" stroke="#3a414a" fill="#3a414a"/><path d="M2117.17 760h34.66a6 6 0 0 0 6-6V606a6 6 0 0 1 6-6h18.8" stroke="#3a414a" fill="none"/><path d="M2117.18 760.48h-.5v-.96h.5z" stroke="#3a414a" stroke-width=".05" fill="#3a414a"/><path d="M2197.38 600l-14.26 4.63v-9.26z" stroke="#3a414a" fill="#3a414a"/><path d="M2117.17 760h34.66a6 6 0 0 1 6 6v148a6 6 0 0 0 6 6h18.8" stroke="#3a414a" fill="none"/><path d="M2117.18 760.48h-.5v-.96h.5z" stroke="#3a414a" stroke-width=".05" fill="#3a414a"/><path d="M2197.38 920l-14.26 4.63v-9.26z" stroke="#3a414a" fill="#3a414a"/><path d="M2361.5 600h32.5a6 6 0 0 1 6 6v148a6 6 0 0 0 6 6h16.62" stroke="#3a414a" fill="none"/><path d="M2361.5 600.48h-.5v-.96h.5z" stroke="#3a414a" stroke-width=".05" fill="#3a414a"/><path d="M2437.38 760l-14.26 4.63v-9.26z" stroke="#3a414a" fill="#3a414a"/><path d="M2361.5 760h61.12" stroke="#3a414a" fill="none"/><path d="M2361.5 760.48h-.5v-.96h.5z" stroke="#3a414a" stroke-width=".05" fill="#3a414a"/><path d="M2437.38 760l-14.26 4.63v-9.26z" stroke="#3a414a" fill="#3a414a"/><path d="M2361.5 920h32.5a6 6 0 0 0 6-6V766a6 6 0 0 1 6-6h16.62" stroke="#3a414a" fill="none"/><path d="M2361.5 920.48h-.5v-.96h.5z" stroke="#3a414a" stroke-width=".05" fill="#3a414a"/><path d="M2437.38 760l-14.26 4.63v-9.26z" stroke="#3a414a" fill="#3a414a"/><path d="M2601.5 760h62.12" stroke="#3a414a" fill="none"/><path d="M2601.5 760.48h-.5v-.96h.5z" stroke="#3a414a" stroke-width=".05" fill="#3a414a"/><path d="M2678.38 760l-14.26 4.63v-9.26z" stroke="#3a414a" fill="#3a414a"/><path d="M1768.9 437.55a6 6 0 0 1 6-6h548a6 6 0 0 1 6 6v48a6 6 0 0 1-6 6h-548a6 6 0 0 1-6-6z" fill="none"/><g><use xlink:href="#s" transform="matrix(1,0,0,1,1768.8899799998853,431.5502956272559) translate(31.908094618055657 43.742404513888886)"/><use xlink:href="#t" transform="matrix(1,0,0,1,1768.8899799998853,431.5502956272559) translate(236.64225260416669 43.742404513888886)"/><use xlink:href="#u" transform="matrix(1,0,0,1,1768.8899799998853,431.5502956272559) translate(403.43261718749994 43.742404513888886)"/></g><defs><path d="M180 0v-1490h510c348 0 508 209 508 474 0 266-160 477-507 477H370V0H180zm190-706h312c236 0 327-133 327-310 0-176-91-307-329-307H370v617" id="v"/><path d="M471 26C259 26 90-98 90-318c0-256 228-303 435-329 202-27 287-16 287-108 0-139-79-219-234-219-161 0-248 86-283 164l-173-57c86-203 278-265 451-265 150 0 419 46 419 395V0H815v-152h-12C765-73 660 26 471 26zm31-159c199 0 310-134 310-271v-155c-30 35-226 55-295 64-131 17-246 59-246 186 0 116 97 176 231 176" id="w"/><path d="M158 418v-1536h174v179h20c37-59 106-193 324-193 279 0 474 222 474 576 0 356-194 580-473 580-213 0-288-135-325-197h-14v591H158zm492-555c209 0 317-186 317-421 0-232-105-413-317-413-206 0-314 166-314 413 0 249 111 421 314 421" id="x"/><path d="M628 24c-324 0-524-230-524-574 0-343 198-582 503-582 237 0 487 146 487 559v75H286c9 234 145 362 343 362 132 0 231-58 273-172l174 48C1024-91 857 24 628 24zM287-650h624c-17-190-120-322-304-322-192 0-309 151-320 322" id="y"/><path d="M158 0v-1118h174v172h12c41-113 157-188 290-188 26 0 70 2 91 3v181c-11-2-60-10-108-10-161 0-279 109-279 260V0H158" id="z"/><g id="a"><use transform="matrix(0.010850694444444444,0,0,0.010850694444444444,0,0)" xlink:href="#v"/><use transform="matrix(0.010850694444444444,0,0,0.010850694444444444,14.192708333333332,0)" xlink:href="#w"/><use transform="matrix(0.010850694444444444,0,0,0.010850694444444444,26.671006944444443,0)" xlink:href="#x"/><use transform="matrix(0.010850694444444444,0,0,0.010850694444444444,40.27777777777777,0)" xlink:href="#y"/><use transform="matrix(0.010850694444444444,0,0,0.010850694444444444,53.233506944444436,0)" xlink:href="#z"/></g><path d="M218-607c0-325 108-727 258-974h175c-155 315-250 682-250 974 0 265 78 531 250 886H476C306-10 218-315 218-607" id="A"/><path d="M180 0v-1490h270l367 940c28 72 75 218 110 339 35-117 81-264 110-339l362-940h271V0h-187c2-448-5-837 7-1287-157 497-311 829-483 1287H842C666-458 514-784 354-1284c12 438 5 843 7 1284H180" id="B"/><path d="M783 20c-382 0-661-292-661-764 0-473 279-766 661-766 302 0 548 182 601 489h-190c-42-204-217-313-411-313-268 0-476 208-476 590 0 381 209 588 476 588 195 0 369-110 411-313h190c-52 303-296 489-601 489" id="C"/><path d="M370-1490V0H180v-1490h190" id="D"/><path d="M645 0H180v-1490h484c435 0 692 280 692 742 0 466-257 748-711 748zM370-168h263c363 0 539-218 539-580 0-358-176-574-521-574H370v1154" id="E"/><path d="M96 279C273-86 346-350 346-607c0-292-95-659-250-974h175c150 246 258 650 258 974 0 297-91 602-258 886H96" id="F"/><g id="b"><use transform="matrix(0.010850694444444444,0,0,0.010850694444444444,0,0)" xlink:href="#A"/><use transform="matrix(0.010850694444444444,0,0,0.010850694444444444,8.10546875,0)" xlink:href="#v"/><use transform="matrix(0.010850694444444444,0,0,0.010850694444444444,22.298177083333332,0)" xlink:href="#B"/><use transform="matrix(0.010850694444444444,0,0,0.010850694444444444,42.37196180555556,0)" xlink:href="#C"/><use transform="matrix(0.010850694444444444,0,0,0.010850694444444444,58.60460069444444,0)" xlink:href="#D"/><use transform="matrix(0.010850694444444444,0,0,0.010850694444444444,64.57248263888889,0)" xlink:href="#E"/><use transform="matrix(0.010850694444444444,0,0,0.010850694444444444,80.60980902777777,0)" xlink:href="#F"/></g><path d="M613 24c-304 0-509-231-509-576 0-350 205-580 509-580 305 0 511 230 511 580 0 345-206 576-511 576zm0-161c226 0 329-195 329-415 0-222-103-419-329-419-223 0-326 196-326 419 0 220 103 415 326 415" id="G"/><path d="M613 24c-304 0-509-231-509-576 0-350 205-580 509-580 216 0 392 114 453 309l-173 49c-33-115-133-197-280-197-223 0-326 196-326 419 0 220 103 415 326 415 150 0 252-85 285-206l172 49C1010-95 832 24 613 24" id="H"/><path d="M538 24C308 24 148-78 108-271l171-41c32 123 123 178 257 178 156 0 256-77 256-169 0-77-54-128-164-154l-186-44c-203-48-300-148-300-305 0-192 176-326 414-326 230 0 351 112 402 269l-163 42c-31-80-94-158-238-158-133 0-233 69-233 162 0 83 57 129 188 160l169 40c203 48 298 149 298 302 0 196-179 339-441 339" id="I"/><g id="c"><use transform="matrix(0.010850694444444444,0,0,0.010850694444444444,0,0)" xlink:href="#v"/><use transform="matrix(0.010850694444444444,0,0,0.010850694444444444,14.192708333333332,0)" xlink:href="#z"/><use transform="matrix(0.010850694444444444,0,0,0.010850694444444444,22.189670138888886,0)" xlink:href="#y"/><use transform="matrix(0.010850694444444444,0,0,0.010850694444444444,35.14539930555555,0)" xlink:href="#x"/><use transform="matrix(0.010850694444444444,0,0,0.010850694444444444,48.752170138888886,0)" xlink:href="#z"/><use transform="matrix(0.010850694444444444,0,0,0.010850694444444444,56.749131944444436,0)" xlink:href="#G"/><use transform="matrix(0.010850694444444444,0,0,0.010850694444444444,70.07378472222221,0)" xlink:href="#H"/><use transform="matrix(0.010850694444444444,0,0,0.010850694444444444,82.76909722222221,0)" xlink:href="#y"/><use transform="matrix(0.010850694444444444,0,0,0.010850694444444444,95.72482638888889,0)" xlink:href="#I"/><use transform="matrix(0.010850694444444444,0,0,0.010850694444444444,107.45442708333333,0)" xlink:href="#I"/></g><path d="M98-1322v-168h1126v168H757V0H567v-1322H98" id="J"/><path d="M65 0l393-574-370-544h210c88 136 192 297 267 435 67-142 176-302 264-435h206L661-564 1053 0H844c-94-144-206-310-287-458C484-308 366-142 273 0H65" id="K"/><path d="M598-1118v154H368v674c0 100 37 144 132 144 23 0 62-6 92-12L629-6c-37 13-88 20-134 20-193 0-307-107-307-290v-688H20v-154h168v-266h180v266h230" id="L"/><g id="d"><use transform="matrix(0.010850694444444444,0,0,0.010850694444444444,0,0)" xlink:href="#J"/><use transform="matrix(0.010850694444444444,0,0,0.010850694444444444,12.608506944444445,0)" xlink:href="#y"/><use transform="matrix(0.010850694444444444,0,0,0.010850694444444444,25.065104166666664,0)" xlink:href="#K"/><use transform="matrix(0.010850694444444444,0,0,0.010850694444444444,37.63020833333333,0)" xlink:href="#L"/></g><g id="e"><use transform="matrix(0.010850694444444444,0,0,0.010850694444444444,0,0)" xlink:href="#v"/><use transform="matrix(0.010850694444444444,0,0,0.010850694444444444,14.192708333333332,0)" xlink:href="#z"/><use transform="matrix(0.010850694444444444,0,0,0.010850694444444444,22.189670138888886,0)" xlink:href="#G"/><use transform="matrix(0.010850694444444444,0,0,0.010850694444444444,35.514322916666664,0)" xlink:href="#H"/><use transform="matrix(0.010850694444444444,0,0,0.010850694444444444,48.209635416666664,0)" xlink:href="#y"/><use transform="matrix(0.010850694444444444,0,0,0.010850694444444444,61.16536458333333,0)" xlink:href="#I"/><use transform="matrix(0.010850694444444444,0,0,0.010850694444444444,72.89496527777777,0)" xlink:href="#I"/></g><path d="M678-1118v154H420V0H240v-964H20v-154h220v-149c0-194 155-293 318-293 85 0 141 18 168 30l-50 154c-19-6-47-17-97-17-111 0-159 58-159 166v109h258" id="M"/><g id="f"><use transform="matrix(0.010850694444444444,0,0,0.010850694444444444,0,0)" xlink:href="#M"/><use transform="matrix(0.010850694444444444,0,0,0.010850694444444444,7.573784722222222,0)" xlink:href="#G"/><use transform="matrix(0.010850694444444444,0,0,0.010850694444444444,20.8984375,0)" xlink:href="#z"/></g><path d="M52 0l541-1490h220L1361 0h-200l-149-416H398L254 0H52zm404-582h497c-103-290-145-390-251-756-108 377-145 460-246 756" id="N"/><path d="M338-670V0H158v-1118h173l1 207c72-158 192-221 342-221 226 0 378 139 378 422V0H872v-695c0-172-96-275-252-275-161 0-282 109-282 300" id="O"/><path d="M158 0v-1118h180V0H158zm91-1301c-68 0-125-53-125-119s57-119 125-119c69 0 126 53 126 119s-57 119-126 119" id="P"/><path d="M611 442c-248 0-391-105-460-228l146-94c47 65 117 165 314 165 178 0 307-82 307-266v-224h-17C863-141 792-18 576-18c-268 0-472-195-472-546 0-346 197-568 476-568 216 0 288 133 326 193h17v-179h175V29c0 289-215 413-487 413zm-5-620c203 0 314-146 314-390 0-237-108-403-314-403-213 0-319 180-319 403 0 230 109 390 319 390" id="Q"/><g id="g"><use transform="matrix(0.010850694444444444,0,0,0.010850694444444444,0,0)" xlink:href="#N"/><use transform="matrix(0.010850694444444444,0,0,0.010850694444444444,15.33203125,0)" xlink:href="#O"/><use transform="matrix(0.010850694444444444,0,0,0.010850694444444444,28.461371527777775,0)" xlink:href="#O"/><use transform="matrix(0.010850694444444444,0,0,0.010850694444444444,41.59071180555556,0)" xlink:href="#G"/><use transform="matrix(0.010850694444444444,0,0,0.010850694444444444,54.91536458333333,0)" xlink:href="#L"/><use transform="matrix(0.010850694444444444,0,0,0.010850694444444444,62.29383680555555,0)" xlink:href="#w"/><use transform="matrix(0.010850694444444444,0,0,0.010850694444444444,74.77213541666667,0)" xlink:href="#L"/><use transform="matrix(0.010850694444444444,0,0,0.010850694444444444,82.04210069444444,0)" xlink:href="#P"/><use transform="matrix(0.010850694444444444,0,0,0.010850694444444444,87.42404513888889,0)" xlink:href="#O"/><use transform="matrix(0.010850694444444444,0,0,0.010850694444444444,100.55338541666666,0)" xlink:href="#Q"/></g><path d="M158 0v-1118h175l1 205c55-151 181-225 313-225 147 0 245 90 285 228 53-141 190-228 352-228 194 0 352 125 352 384V0h-181v-749c0-161-105-225-225-225-151 0-243 103-243 244V0H807v-767c0-124-93-207-219-207-131 0-250 92-250 270V0H158" id="R"/><g id="h"><use transform="matrix(0.010850694444444444,0,0,0.010850694444444444,0,0)" xlink:href="#J"/><use transform="matrix(0.010850694444444444,0,0,0.010850694444444444,12.608506944444445,0)" xlink:href="#y"/><use transform="matrix(0.010850694444444444,0,0,0.010850694444444444,25.56423611111111,0)" xlink:href="#z"/><use transform="matrix(0.010850694444444444,0,0,0.010850694444444444,34.27734375,0)" xlink:href="#R"/></g><path d="M657 26c-323 0-524-166-541-416h195c15 169 171 246 346 246 202 0 356-106 356-265 5-203-294-238-475-293-239-73-380-191-380-389 0-252 224-419 512-419 294 0 499 171 508 396H992c-17-145-151-228-328-228-193 0-321 102-321 242 0 156 175 211 284 241l149 41c160 44 422 134 422 412 0 244-197 432-541 432" id="S"/><g id="i"><use transform="matrix(0.010850694444444444,0,0,0.010850694444444444,0,0)" xlink:href="#S"/><use transform="matrix(0.010850694444444444,0,0,0.010850694444444444,14.2578125,0)" xlink:href="#y"/><use transform="matrix(0.010850694444444444,0,0,0.010850694444444444,27.213541666666664,0)" xlink:href="#L"/></g><path d="M653-1490V0H466v-1314h-10L96-1047v-204l324-239h233" id="T"/><use transform="matrix(0.010850694444444444,0,0,0.010850694444444444,0,0)" xlink:href="#T" id="j"/><path d="M154 0v-137l495-537c165-179 249-281 249-418 0-156-121-253-280-253-170 0-278 110-278 278H158c0-264 200-443 465-443 266 0 455 183 455 416 0 161-73 288-336 568L416-179v12h687V0H154" id="U"/><use transform="matrix(0.010850694444444444,0,0,0.010850694444444444,0,0)" xlink:href="#U" id="k"/><use transform="matrix(0.010850694444444444,0,0,0.010850694444444444,0,0)" xlink:href="#O" id="l"/><path d="M180 0v-1490h528c311 0 458 177 458 395 0 191-114 278-244 313v14c139 9 302 137 302 371 0 225-148 397-499 397H180zm190-168h350c232 0 321-102 321-231 0-149-120-277-311-277H370v508zm0-668h328c160 0 286-101 286-255 0-129-87-231-280-231H370v486" id="V"/><path d="M338-670V0H158v-1490h180v566c73-149 190-208 336-208 226 0 379 139 379 422V0H872v-695c0-172-96-275-252-275-161 0-282 109-282 300" id="W"/><path d="M158 0v-1490h180v865h22l478-493h223L593-638 1096 0H865L456-523 338-412V0H158" id="X"/><path d="M692-1560L212 224H46l480-1784h166" id="Y"/><g id="m"><use transform="matrix(0.010850694444444444,0,0,0.010850694444444444,0,0)" xlink:href="#V"/><use transform="matrix(0.010850694444444444,0,0,0.010850694444444444,14.539930555555555,0)" xlink:href="#y"/><use transform="matrix(0.010850694444444444,0,0,0.010850694444444444,27.49565972222222,0)" xlink:href="#O"/><use transform="matrix(0.010850694444444444,0,0,0.010850694444444444,40.625,0)" xlink:href="#H"/><use transform="matrix(0.010850694444444444,0,0,0.010850694444444444,53.3203125,0)" xlink:href="#W"/><use transform="matrix(0.010850694444444444,0,0,0.010850694444444444,66.46050347222223,0)" xlink:href="#R"/><use transform="matrix(0.010850694444444444,0,0,0.010850694444444444,85.92664930555556,0)" xlink:href="#w"/><use transform="matrix(0.010850694444444444,0,0,0.010850694444444444,98.40494791666666,0)" xlink:href="#z"/><use transform="matrix(0.010850694444444444,0,0,0.010850694444444444,107.11805555555557,0)" xlink:href="#X"/><use transform="matrix(0.010850694444444444,0,0,0.010850694444444444,119.31423611111113,0)" xlink:href="#Y"/></g><g id="n"><use transform="matrix(0.010850694444444444,0,0,0.010850694444444444,0,0)" xlink:href="#S"/><use transform="matrix(0.010850694444444444,0,0,0.010850694444444444,14.2578125,0)" xlink:href="#H"/><use transform="matrix(0.010850694444444444,0,0,0.010850694444444444,26.953125,0)" xlink:href="#G"/><use transform="matrix(0.010850694444444444,0,0,0.010850694444444444,40.27777777777778,0)" xlink:href="#z"/><use transform="matrix(0.010850694444444444,0,0,0.010850694444444444,48.990885416666664,0)" xlink:href="#P"/><use transform="matrix(0.010850694444444444,0,0,0.010850694444444444,54.37282986111111,0)" xlink:href="#O"/><use transform="matrix(0.010850694444444444,0,0,0.010850694444444444,67.50217013888889,0)" xlink:href="#Q"/></g><path d="M180 0v-1490h901v168H370v510h643v168H370V0H180" id="Z"/><path d="M537 14c-226 0-379-139-379-422v-710h180v695c0 172 97 275 253 275 160 0 281-109 281-300v-670h181V0H879v-209C806-46 684 14 537 14" id="aa"/><g id="o"><use transform="matrix(0.010850694444444444,0,0,0.010850694444444444,0,0)" xlink:href="#Z"/><use transform="matrix(0.010850694444444444,0,0,0.010850694444444444,12.369791666666666,0)" xlink:href="#aa"/><use transform="matrix(0.010850694444444444,0,0,0.010850694444444444,25.50998263888889,0)" xlink:href="#O"/><use transform="matrix(0.010850694444444444,0,0,0.010850694444444444,38.639322916666664,0)" xlink:href="#H"/><use transform="matrix(0.010850694444444444,0,0,0.010850694444444444,51.334635416666664,0)" xlink:href="#L"/><use transform="matrix(0.010850694444444444,0,0,0.010850694444444444,58.60460069444444,0)" xlink:href="#P"/><use transform="matrix(0.010850694444444444,0,0,0.010850694444444444,63.986545138888886,0)" xlink:href="#G"/><use transform="matrix(0.010850694444444444,0,0,0.010850694444444444,77.31119791666666,0)" xlink:href="#O"/></g><path d="M180 0v-1490h510c348 0 508 194 508 460 0 198-88 351-276 417L1256 0h-220L726-579c-117 2-238 0-356 1V0H180zm190-747h312c235 0 327-108 327-283 0-177-92-293-329-293H370v576" id="ab"/><path d="M409 0L70-1118h191c89 329 165 560 243 925 75-353 154-601 240-925h192c85 325 161 564 235 922 77-354 157-598 244-922h191L1267 0h-179c-86-307-176-590-250-913C763-588 675-308 588 0H409" id="ac"/><path d="M57 0l534-763-501-727h220c122 187 296 416 391 605 94-191 272-419 396-605h215L811-770 1340 0h-219C986-204 811-426 699-640 588-430 407-202 273 0H57" id="ad"/><path d="M180 0v-1490h190v1322h690V0H180" id="ae"/><g id="p"><use transform="matrix(0.010850694444444444,0,0,0.010850694444444444,0,0)" xlink:href="#ab"/><use transform="matrix(0.010850694444444444,0,0,0.010850694444444444,14.192708333333332,0)" xlink:href="#w"/><use transform="matrix(0.010850694444444444,0,0,0.010850694444444444,26.671006944444443,0)" xlink:href="#ac"/><use transform="matrix(0.010850694444444444,0,0,0.010850694444444444,44.85677083333333,0)" xlink:href="#ad"/><use transform="matrix(0.010850694444444444,0,0,0.010850694444444444,60.01519097222221,0)" xlink:href="#B"/><use transform="matrix(0.010850694444444444,0,0,0.010850694444444444,80.08897569444443,0)" xlink:href="#ae"/></g><path d="M449 0L49-1490h333c89 395 194 758 253 1185 65-426 176-790 269-1185h317c93 394 201 758 268 1181 60-425 164-788 253-1181h334L1675 0h-348c-90-376-204-711-266-1118C1004-714 886-373 798 0H449" id="af"/><path d="M628 22C291 22 81-210 81-554c0-346 210-578 547-578 336 0 547 232 547 578 0 344-211 576-547 576zm0-236c160 0 242-146 242-341 0-197-82-341-242-341S387-753 387-555c0 195 81 341 241 341" id="ag"/><path d="M128 0v-1118h290v195h12c54-169 184-238 367-200v268c-27-8-86-15-130-15-138 0-239 95-239 234V0H128" id="ah"/><path d="M128 0v-1490h300v802h17l366-430h347L740-633 1179 0H826L514-456l-86 97V0H128" id="ai"/><path d="M750-1118v229H516V0H217v-889H20v-229h197v-86c0-238 156-356 363-356 94 0 178 20 215 31l-54 226c-25-7-61-15-100-15-123-3-131 84-125 200h234" id="aj"/><path d="M428-1490V0H128v-1490h300" id="ak"/><path d="M361 0L31-1118h315c68 295 127 523 188 845 63-317 128-551 199-845h276c71 296 131 525 196 846 57-321 119-552 186-846h319L1378 0h-305c-73-261-148-486-204-771C813-484 740-261 666 0H361" id="al"/><g id="q"><use transform="matrix(0.01627604166666666,0,0,0.01627604166666666,0,0)" xlink:href="#af"/><use transform="matrix(0.01627604166666666,0,0,0.01627604166666666,32.92643229166666,0)" xlink:href="#ag"/><use transform="matrix(0.01627604166666666,0,0,0.01627604166666666,53.369140624999986,0)" xlink:href="#ah"/><use transform="matrix(0.01627604166666666,0,0,0.01627604166666666,67.46419270833331,0)" xlink:href="#ai"/><use transform="matrix(0.01627604166666666,0,0,0.01627604166666666,86.80013020833331,0)" xlink:href="#aj"/><use transform="matrix(0.01627604166666666,0,0,0.01627604166666666,100.06510416666664,0)" xlink:href="#ak"/><use transform="matrix(0.01627604166666666,0,0,0.01627604166666666,109.09830729166664,0)" xlink:href="#ag"/><use transform="matrix(0.01627604166666666,0,0,0.01627604166666666,129.0852864583333,0)" xlink:href="#al"/></g><path d="M681 22C323 22 94-145 85-462h297c10 151 131 226 296 226 163 0 271-77 271-190 0-102-95-149-257-189l-164-41c-252-61-403-188-403-405 0-269 236-449 560-449 330 0 546 183 551 445H941c-11-119-106-188-259-188-156 0-244 72-244 172-3 156 226 185 373 221 250 61 445 186 445 436 0 271-213 446-575 446" id="am"/><path d="M628 22C291 22 81-210 81-554c0-346 210-578 547-578 265 0 455 142 497 372l-279 52c-25-116-99-188-215-188-160 0-244 139-244 341 0 200 84 341 244 341 116 0 193-74 217-195l279 51C1085-123 896 22 628 22" id="an"/><path d="M633 22C291 22 81-200 81-553c0-345 210-579 537-579 292 0 525 185 525 567v84H378c7 183 109 277 260 277 105 0 184-46 216-132l272 51C1071-99 893 22 633 22zM380-669h474c-15-146-94-237-233-237-143 0-229 99-241 237" id="ao"/><g id="r"><use transform="matrix(0.01627604166666666,0,0,0.01627604166666666,0,0)" xlink:href="#am"/><use transform="matrix(0.01627604166666666,0,0,0.01627604166666666,21.826171874999993,0)" xlink:href="#an"/><use transform="matrix(0.01627604166666666,0,0,0.01627604166666666,41.438802083333314,0)" xlink:href="#ag"/><use transform="matrix(0.01627604166666666,0,0,0.01627604166666666,61.88151041666664,0)" xlink:href="#ah"/><use transform="matrix(0.01627604166666666,0,0,0.01627604166666666,74.6419270833333,0)" xlink:href="#ao"/></g><g id="s"><use transform="matrix(0.01844618055555555,0,0,0.01844618055555555,0,0)" xlink:href="#N"/><use transform="matrix(0.01844618055555555,0,0,0.01844618055555555,26.06445312499999,0)" xlink:href="#O"/><use transform="matrix(0.01844618055555555,0,0,0.01844618055555555,48.3843315972222,0)" xlink:href="#O"/><use transform="matrix(0.01844618055555555,0,0,0.01844618055555555,70.70421006944441,0)" xlink:href="#G"/><use transform="matrix(0.01844618055555555,0,0,0.01844618055555555,93.35611979166663,0)" xlink:href="#L"/><use transform="matrix(0.01844618055555555,0,0,0.01844618055555555,105.8995225694444,0)" xlink:href="#w"/><use transform="matrix(0.01844618055555555,0,0,0.01844618055555555,127.11263020833329,0)" xlink:href="#L"/><use transform="matrix(0.01844618055555555,0,0,0.01844618055555555,139.47157118055551,0)" xlink:href="#P"/><use transform="matrix(0.01844618055555555,0,0,0.01844618055555555,148.62087673611106,0)" xlink:href="#O"/><use transform="matrix(0.01844618055555555,0,0,0.01844618055555555,170.9407552083333,0)" xlink:href="#Q"/></g><path d="M338-1490V0H158v-1490h180" id="ap"/><path d="M577 24c-279 0-473-224-473-580 0-354 195-576 474-576 218 0 287 134 324 193h14v-551h180V0H922v-173h-20C865-111 790 24 577 24zm27-161c203 0 314-172 314-421 0-247-108-413-314-413-212 0-317 181-317 413 0 235 108 421 317 421" id="aq"/><g id="t"><use transform="matrix(0.01844618055555555,0,0,0.01844618055555555,0,0)" xlink:href="#S"/><use transform="matrix(0.01844618055555555,0,0,0.01844618055555555,24.238281249999993,0)" xlink:href="#y"/><use transform="matrix(0.01844618055555555,0,0,0.01844618055555555,46.263020833333314,0)" xlink:href="#ap"/><use transform="matrix(0.01844618055555555,0,0,0.01844618055555555,55.41232638888886,0)" xlink:href="#y"/><use transform="matrix(0.01844618055555555,0,0,0.01844618055555555,77.43706597222217,0)" xlink:href="#H"/><use transform="matrix(0.01844618055555555,0,0,0.01844618055555555,99.01909722222217,0)" xlink:href="#L"/><use transform="matrix(0.01844618055555555,0,0,0.01844618055555555,111.00911458333327,0)" xlink:href="#y"/><use transform="matrix(0.01844618055555555,0,0,0.01844618055555555,133.0338541666666,0)" xlink:href="#aq"/></g><g id="u"><use transform="matrix(0.01844618055555555,0,0,0.01844618055555555,0,0)" xlink:href="#v"/><use transform="matrix(0.01844618055555555,0,0,0.01844618055555555,24.127604166666657,0)" xlink:href="#w"/><use transform="matrix(0.01844618055555555,0,0,0.01844618055555555,45.34071180555554,0)" xlink:href="#x"/><use transform="matrix(0.01844618055555555,0,0,0.01844618055555555,68.4722222222222,0)" xlink:href="#y"/><use transform="matrix(0.01844618055555555,0,0,0.01844618055555555,90.49696180555553,0)" xlink:href="#z"/><use transform="matrix(0.01844618055555555,0,0,0.01844618055555555,104.71896701388886,0)" xlink:href="#I"/></g></defs></g></svg>